# xmcd CD database file
#
# Track frame offsets:
#	150
#	15559
#	29853
#	43938
#	56002
#	72728
#	83679
#	96564
#	110506
#	124904
#	136681
#	149155
#
# Disc length: 2275 seconds
#
# Revision: 0
# Processed by: cddbd v1.5.2PL0 Copyright (c) Steve Scherf et al.
# Submitted via: CDex 1.70beta2
#
DISCID=bc08e10c
DTITLE=Duke Ellikton - Unknown Session
DYEAR=1900
DGENRE=Jazz
TTITLE0=EVERYTING BUT YOU
TTITLE1=BLACK BEAUTY
TTITLE2=ALL TOO SOON
TTITLE3=SOMETHING YO LIVE FOR
TTITLE4=MOOD INDIGO
TTITLE5=CREOLE BLUES
TTITLE6=DON'T YOU KNOW I CARE
TTITLE7=A FLOWER IS A LOVESOME THING
TTITLE8=MIGHTY LIKE THE BLUES
TTITLE9=TONIGHT I SHALL SLEEP
TTITLE10=DUAL HIGHWAY
TTITLE11=BLUES
EXTD=
EXTT0=
EXTT1=
EXTT2=
EXTT3=
EXTT4=
EXTT5=
EXTT6=
EXTT7=
EXTT8=
EXTT9=
EXTT10=
EXTT11=
PLAYORDER=
